PathFileType	4	(X/Y/Z)	c:/Users/goper/Files/vsCode/490R/osim_files/A02/A02_Slow_03.trc
DataRate	CameraRate	NumFrames	NumMarkers	Units                	OrigDataRate	OrigDataStartFrame	OrigNumFrames
250.00	250.00	4	36	mm	250.0	2001	3200
                Frame#	Time	Mobility_markerset:LPSIS			Mobility_markerset:LASIS			Mobility_markerset:LTH1			Mobility_markerset:LTH2			Mobility_markerset:LTH3			Mobility_markerset:LTH4			Mobility_markerset:LLFE			Mobility_markerset:LMFE			Mobility_markerset:LSH1			Mobility_markerset:LSH2			Mobility_markerset:LSH3			Mobility_markerset:LSH4			Mobility_markerset:LLMAL			Mobility_markerset:LMMAL			Mobility_markerset:LCAL			Mobility_markerset:LMTP5			Mobility_markerset:LTOE			Mobility_markerset:LMTP1			Mobility_markerset:RPSIS			Mobility_markerset:RASIS			Mobility_markerset:RTH1			Mobility_markerset:RTH2			Mobility_markerset:RTH3			Mobility_markerset:RTH4			Mobility_markerset:RLFE			Mobility_markerset:RMFE			Mobility_markerset:RSH1			Mobility_markerset:RSH2			Mobility_markerset:RSH3			Mobility_markerset:RSH4			Mobility_markerset:RLMAL			Mobility_markerset:RMMAL			Mobility_markerset:RCAL			Mobility_markerset:RMTP1			Mobility_markerset:RTOE			Mobility_markerset:RMTP5		
		X1	Y1	Z1	X2	Y2	Z2	X3	Y3	Z3	X4	Y4	Z4	X5	Y5	Z5	X6	Y6	Z6	X7	Y7	Z7	X8	Y8	Z8	X9	Y9	Z9	X10	Y10	Z10	X11	Y11	Z11	X12	Y12	Z12	X13	Y13	Z13	X14	Y14	Z14	X15	Y15	Z15	X16	Y16	Z16	X17	Y17	Z17	X18	Y18	Z18	X19	Y19	Z19	X20	Y20	Z20	X21	Y21	Z21	X22	Y22	Z22	X23	Y23	Z23	X24	Y24	Z24	X25	Y25	Z25	X26	Y26	Z26	X27	Y27	Z27	X28	Y28	Z28	X29	Y29	Z29	X30	Y30	Z30	X31	Y31	Z31	X32	Y32	Z32	X33	Y33	Z33	X34	Y34	Z34	X35	Y35	Z35	X36	Y36	Z36

2001	8.00000	-1320.52161	949.07837	289.90176	-1453.86963	905.69275	384.92285	-1324.08875	666.76874	400.26526	0.00000	0.00000	0.00000	-1380.11780	663.13519	425.73206	-1374.82275	618.22571	417.79953	0.00000	0.00000	0.00000	0.00000	0.00000	0.00000	-1244.06934	433.40466	364.00061	-1212.19373	402.30798	367.53055	-1282.56165	388.63785	381.71417	-1245.77637	362.66284	382.93250	-1068.86707	193.58218	331.58963	-1091.62183	190.03615	251.33481	-1031.81702	246.79768	288.00034	-1046.24414	75.90530	328.54260	-1093.16125	48.45660	264.55823	-1064.55811	80.40803	217.33705	-1334.95044	960.68860	189.44162	0.00000	0.00000	0.00000	-1499.62122	604.07922	125.30136	-1514.03052	563.98059	127.39898	-1556.76501	621.39575	127.48728	-1563.66382	578.59772	126.92552	-1555.78625	458.51953	121.64282	-1573.22681	469.26245	254.83325	-1582.18726	275.65881	148.45836	-1596.51196	232.35542	160.42159	-1640.44714	288.75992	145.85576	-1647.21362	242.64607	154.53510	-1631.65222	81.05676	163.20035	-1641.99109	90.54571	251.55380	-1583.67798	61.31077	210.16962	-1769.25366	71.66269	244.46584	-1789.49902	85.50375	208.84122	-1761.93079	64.27665	152.46564
2002	8.00400	-1324.92395	950.29822	289.88528	-1458.12939	906.87640	384.92770	-1329.86267	667.03314	400.84518	0.00000	0.00000	0.00000	-1386.05933	664.05109	426.12057	-1381.23779	618.92462	418.28879	0.00000	0.00000	0.00000	0.00000	0.00000	0.00000	-1252.22241	434.01184	365.33588	-1219.93835	403.26743	368.95239	-1290.37842	389.43481	382.67499	-1253.48206	363.44046	384.03256	-1075.28516	195.47755	333.24173	-1098.03552	191.96162	252.80417	-1039.56177	249.79227	289.97726	-1049.88025	78.38906	329.18344	-1096.23682	49.68555	265.41238	-1068.76794	82.76063	218.33231	-1339.53503	961.78149	189.43576	0.00000	0.00000	0.00000	-1502.95972	604.89618	125.50506	-1517.06372	564.78711	127.62598	-1559.95142	621.93848	127.65202	-1566.78833	579.13940	127.17522	-1558.28528	459.05966	121.86942	-1575.77051	469.56540	255.05008	-1583.59717	276.02533	148.55447	-1597.84888	232.27296	160.63873	-1641.95691	288.86176	145.90451	-1648.33142	242.63751	154.58824	-1631.97388	80.91206	163.39977	-1642.45325	90.52032	251.59549	-1583.91064	61.52830	210.23999	-1769.28589	70.99612	244.23940	-1789.92175	84.80420	208.84283	-1762.12329	63.71045	152.45752
2003	8.00800	-1329.18738	951.57965	289.84705	-1462.38672	908.10980	384.88812	-1335.68213	667.39240	401.42050	0.00000	0.00000	0.00000	-1391.89148	664.87238	426.53036	-1387.43140	619.81122	418.41580	0.00000	0.00000	0.00000	0.00000	0.00000	0.00000	-1260.12012	434.83032	366.68906	-1227.83923	404.20532	370.48508	-1298.26685	389.85870	383.71414	-1261.30359	364.10583	385.06903	-1081.79065	197.50891	334.80539	-1104.27393	193.93797	254.44965	-1047.36218	252.68268	291.83966	-1053.87646	80.89274	329.93359	-1099.92261	51.26178	266.43024	-1073.29370	85.00700	219.34964	-1343.99036	962.89417	189.33350	-1504.80627	932.25012	143.39685	-1506.32629	605.70331	125.81248	-1520.08325	565.54578	127.88238	-1563.35852	622.38275	127.72745	-1569.84668	579.54565	127.39453	-1560.76306	459.55469	122.09154	-1578.27344	469.92328	255.28314	-1585.12646	276.35892	148.69981	-1598.69373	232.70229	160.63019	-1643.35156	288.92053	146.03328	-1649.68347	242.66685	154.65646	-1632.31946	81.22189	163.35155	-1642.85962	90.48695	251.61414	-1584.14624	61.71908	210.26334	-1769.59595	70.41547	244.20222	-1790.23840	84.18130	208.77002	-1762.32520	63.16870	152.41203
2004	8.01200	-1333.49524	952.70679	289.75375	-1466.31750	909.38000	384.94553	-1341.47852	667.67926	401.97867	0.00000	0.00000	0.00000	-1397.89417	665.73663	426.93561	-1393.63000	620.31891	419.21036	0.00000	0.00000	0.00000	0.00000	0.00000	0.00000	-1268.23975	435.61053	368.21890	-1235.86877	405.03195	371.99496	-1306.25366	390.41769	384.58344	-1269.25879	364.70911	386.12967	-1088.28223	199.51433	336.39764	-1110.92126	195.69984	255.79073	-1055.04834	255.57391	293.68127	-1057.92798	83.40076	330.70877	-1104.20776	53.26602	267.58563	-1078.12134	87.32856	220.38368	-1348.30249	964.01648	189.26064	0.00000	0.00000	0.00000	-1509.53674	606.42804	126.09277	-1523.06091	566.26013	128.14359	-1566.61792	622.96851	128.20126	-1572.90051	580.01630	127.59891	-1563.10632	460.08090	122.24609	-1580.79688	470.28915	255.49666	-1586.30994	276.77286	148.73627	-1600.10181	232.87161	160.85199	-1644.89026	288.95154	146.13538	-1650.77271	242.66597	154.75278	-1632.61084	81.27568	163.38777	-1643.29272	90.47473	251.62895	-1584.36023	61.89378	210.29306	-1769.81934	69.80373	244.22520	-1790.64465	83.53735	208.74280	-1762.44824	62.63548	152.39500
